name symmetric_stride_kinematics_IKTD_Minus_6.mot
datacolumns 38
datarows 7
range 0.00000000 0.00687699
endheader
                time	/jointset/ground_pelvis/pelvis_tilt/value	/jointset/ground_pelvis/pelvis_list/value	/jointset/ground_pelvis/pelvis_rotation/value	/jointset/ground_pelvis/pelvis_tx/value	/jointset/ground_pelvis/pelvis_ty/value	/jointset/ground_pelvis/pelvis_tz/value	/jointset/hip_r/hip_flexion_r/value	/jointset/hip_r/hip_adduction_r/value	/jointset/hip_r/hip_rotation_r/value	/jointset/knee_r/knee_angle_r/value	/jointset/ankle_r/ankle_angle_r/value	/jointset/subtalar_r/subtalar_angle_r/value	/jointset/mtp_r/mtp_angle_r/value	/jointset/hip_l/hip_flexion_l/value	/jointset/hip_l/hip_adduction_l/value	/jointset/hip_l/hip_rotation_l/value	/jointset/knee_l/knee_angle_l/value	/jointset/ankle_l/ankle_angle_l/value	/jointset/subtalar_l/subtalar_angle_l/value	/jointset/mtp_l/mtp_angle_l/value	/jointset/back/lumbar_extension/value	/jointset/back/lumbar_bending/value	/jointset/back/lumbar_rotation/value	/jointset/acromial_r/arm_flex_r/value	/jointset/acromial_r/arm_add_r/value	/jointset/acromial_r/arm_rot_r/value	/jointset/elbow_r/elbow_flex_r/value	/jointset/radioulnar_r/pro_sup_r/value	/jointset/radius_hand_r/wrist_flex_r/value	/jointset/radius_hand_r/wrist_dev_r/value	/jointset/acromial_l/arm_flex_l/value	/jointset/acromial_l/arm_add_l/value	/jointset/acromial_l/arm_rot_l/value	/jointset/elbow_l/elbow_flex_l/value	/jointset/radioulnar_l/pro_sup_l/value	/jointset/radius_hand_l/wrist_flex_l/value	/jointset/radius_hand_l/wrist_dev_l/value	
          0.00000000	         -7.10498288	         -3.70650999	         -6.63057129	          0.00000000	          0.99564809	          0.30736795	         34.06899751	          3.34426211	          0.88219043	        -17.47165200	        -21.91942290	        -16.22603662	         -1.07640024	         34.23433192	        -10.43290100	          2.58308455	       -118.53295328	         -8.00033963	        -20.12278531	         -3.54915501	        -17.84281962	          7.88588875	         -2.38625165	         -6.09382121	        -25.24644539	        -13.32632365	        104.17503655	         78.38781109	        -23.37888382	          5.16205489	         -0.45028241	        -18.40922446	        -11.48749439	         73.51448870	         54.95156439	          0.06420662	          5.53706852	
          0.00064822	         -7.17726747	         -3.62135275	         -6.87182964	          0.00777845	          0.99514069	          0.30749482	         33.72713391	          3.34179267	          0.88894075	        -17.31364360	        -21.37552392	        -15.69537646	         -0.79204822	         34.71525852	        -10.45502714	          2.46386542	       -118.84098460	         -7.82502647	        -20.17781931	         -3.24415933	        -17.71233643	          7.78565312	         -2.17473573	         -5.13075315	        -25.14497902	        -13.21928538	        104.36678982	         78.68084969	        -23.29267608	          5.18112314	         -0.92418598	        -18.16989235	        -11.20629149	         73.40345106	         55.33476535	         -0.00952631	          5.57225656	
          0.00269632	         -7.39979909	         -3.33952237	         -7.64496560	          0.03239160	          0.99344836	          0.30790398	         32.63711633	          3.31832283	          0.99295182	        -16.84205063	        -19.56443336	        -14.24251993	          0.03043085	         36.23787662	        -10.54057356	          2.08073505	       -119.79784284	         -7.30889124	        -20.34428525	         -2.44228495	        -17.29276085	          7.46092053	         -1.48457112	         -2.10014071	        -24.79282914	        -12.90348690	        104.94584738	         79.74314669	        -22.99486156	          5.22912318	         -2.43372421	        -17.41084008	        -10.29035556	         73.12910912	         56.45259219	         -0.24154391	          5.73304169	
          0.00418067	         -7.55321449	         -3.12576422	         -8.21508248	          0.05026575	          0.99214253	          0.30820788	         31.83669729	          3.28587417	          1.13817347	        -16.53886554	        -18.17454039	        -13.40106250	          0.66207009	         37.34114687	        -10.62090122	          1.79837726	       -120.47506544	         -6.97081900	        -20.46014120	         -2.01100363	        -16.98481964	          7.22072224	         -0.96219438	          0.07952209	        -24.50931553	        -12.70437468	        105.35097018	         80.58764686	        -22.76538703	          5.26435116	         -3.53993803	        -16.86016430	         -9.59955246	         72.99767752	         57.22941350	         -0.40796082	          5.86949934	
          0.00418067	         -7.55321449	         -3.12576422	         -8.21508248	          0.05026575	          0.99214253	          0.30820788	         31.83669729	          3.28587417	          1.13817347	        -16.53886554	        -18.17454039	        -13.40106250	          0.66207009	         37.34114687	        -10.62090122	          1.79837726	       -120.47506544	         -6.97081900	        -20.46014120	         -2.01100363	        -16.98481964	          7.22072224	         -0.96219438	          0.07952209	        -24.50931553	        -12.70437468	        105.35097018	         80.58764686	        -22.76538703	          5.26435116	         -3.53993803	        -16.86016430	         -9.59955246	         72.99767752	         57.22941350	         -0.40796082	          5.86949934	
          0.00482889	         -7.61767197	         -3.03065148	         -8.46654146	          0.05808106	          0.99155287	          0.30834240	         31.48418624	          3.26755589	          1.21763592	        -16.41947120	        -17.55321388	        -13.08969283	          0.95461715	         37.82218893	        -10.66175005	          1.67419607	       -120.76633571	         -6.83242900	        -20.51008550	         -1.86008073	        -16.85002058	          7.11530598	         -0.72780815	          1.02566856	        -24.37855754	        -12.62726790	        105.52665066	         80.95565887	        -22.66445599	          5.28020067	         -4.02625350	        -16.61998882	         -9.29089708	         72.95666424	         57.57404437	         -0.48069927	          5.93100369	
          0.00687699	         -7.81124788	         -2.72520830	         -9.26961903	          0.08281561	          0.98961373	          0.30877243	         30.36162892	          3.19072297	          1.51752084	        -16.12342395	        -15.40393032	        -12.20584628	          2.15290776	         39.33840304	        -10.81635573	          1.28146018	       -121.66841576	         -6.43011405	        -20.66653556	         -1.31828203	        -16.42280270	          6.78319056	          0.03849808	          3.98604935	        -23.93988952	        -12.43082591	        106.08259241	         82.07366303	        -22.34646897	          5.30474452	         -5.57546975	        -15.86160598	         -8.29642027	         72.88612330	         58.69223724	         -0.71620410	          6.15778367	
